<?xml version="1.0" encoding="utf-8"?>
<!-- Generator: Adobe Illustrator 21.1.0, SVG Export Plug-In . SVG Version: 6.00 Build 0)  -->
<svg version="1.1" id="Layer_1" xmlns="http://www.w3.org/2000/svg" xmlns:xlink="http://www.w3.org/1999/xlink" x="0px" y="0px"
	 viewBox="0 0 1500 1500" style="enable-background:new 0 0 1500 1500;" xml:space="preserve">
<style type="text/css">
	.st0{fill:none;}
	.st1{fill:#010101;}
</style>
<g>
	<path class="st0" d="M750,74.1c0-0.2,0-0.3,0-0.3S750,73.9,750,74.1L750,74.1z"/>
	<path class="st1" d="M750,73.8L750,73.8L750,73.8L750,73.8L750,73.8z"/>
	<path class="st1" d="M747.7,0L747.7,0L747.7,0L747.7,0z"/>
	<path class="st1" d="M750,73.8C749.9,73.8,749.9,73.8,750,73.8L750,73.8C749.9,73.8,749.9,73.8,750,73.8L750,73.8z"/>
	<path class="st1" d="M747.8,0L747.8,0L747.8,0L747.8,0z"/>
	<path class="st1" d="M747.9,0L747.9,0C748,0,748,0,747.9,0C748,0,748,0,747.9,0z"/>
	<path class="st1" d="M747.6,0L747.6,0L747.6,0L747.6,0z"/>
	<path class="st1" d="M747.4,0L747.4,0L747.4,0L747.4,0z"/>
	<path class="st1" d="M747.7,0C747.6,0,747.6,0,747.7,0C747.6,0,747.6,0,747.7,0L747.7,0z"/>
</g>
<g>
	<g>
		<path class="st0" d="M841.6,735.5c-33,56.8-27.7,159.8,54.2,206.1c81.9,47.6,166.5,107,255,52.8c88.5-55.5,76.6-183.6,23.8-265.5
			C1130.9,660.2,874.6,677.3,841.6,735.5z"/>
		<path class="st0" d="M656.7,735.5c-31.7-58.1-288-75.3-332.9-6.6c-51.5,80.6-63.4,210,23.8,265.5c88.5,54.2,173.1-5.3,255-52.8
			C684.4,895.3,689.7,792.3,656.7,735.5z"/>
		<path class="st0" d="M753.1,927C751.8,927,751.8,927,753.1,927C751.8,927,751.8,927,753.1,927L753.1,927L753.1,927
			c-1.3,0-1.3,0-2.6,0l0,0l0,0h-1.3l0,0l0,0c0,0,0,0-1.3,0h-1.3c-5.3,0-18.5,2.6-19.8,17.2c-10.6,71.3-92.5,184.9-85.9,215.3
			c10.6,46.2,75.3-26.4,107-30.4l0,0h1.3h1.3h1.3h1.3h1.3h1.3l0,0c31.7,5.3,96.4,77.9,107,30.4c5.3-30.4-75.3-142.7-85.9-215.3
			C771.6,928.3,758.4,927,753.1,927z"/>
		<g>
			<g>
				<g>
					<path d="M1284.2,953.4c13.2-114.9,34.3-120.2,59.4-214C1449.3,356.3,1161.3,10.2,753.1,8.9l0,0h-1.3h-1.3h-1.3l0,0l0,0h-1.3
						h-1.3h-1.3l0,0C338.3,11.5,51.6,356.3,156,740.8c25.1,92.5,46.2,97.8,59.4,214c-97.8,47.6-105.7,288,107,277.4
						c55.5-6.6,117.6-33,117.6,39.6l-43.6,188.9c0,0,0,30.4,26.4,30.4c13.2,0,642,0,655.2,0c29.1,0,26.4-31.7,26.4-31.7l-43.6-188.9
						c0-72.7,60.8-46.2,117.6-39.6C1389.8,1242.7,1383.2,1002.3,1284.2,953.4z M603.8,944.2c-81.9,47.6-166.5,107-255,52.8
						c-88.5-55.5-76.6-183.6-23.8-265.5c44.9-68.7,301.2-52.8,332.9,6.6C691,794.9,685.7,896.6,603.8,944.2z M860.1,1159.5
						c-10.6,46.2-75.3-26.4-107-30.4l0,0h-1.3h-1.3h-1.3h-1.3h-1.3h-1.3l0,0c-31.7,5.3-96.4,77.9-107,30.4
						c-5.3-30.4,75.3-142.7,85.9-215.3c2.6-14.5,14.5-15.9,19.8-17.2c0,0,0,0,1.3,0h1.3l0,0l0,0c0,0,0,0,1.3,0l0,0l0,0h1.3l0,0l0,0
						c0,0,0,0,1.3,0h1.3c5.3,0,18.5,2.6,19.8,17.2C784.8,1016.8,866.7,1130.5,860.1,1159.5z M1152.1,997
						c-88.5,54.2-173.1-5.3-255-52.8c-81.9-47.6-87.2-149.3-54.2-206.1c31.7-58.1,288-75.3,332.9-6.6
						C1228.7,813.4,1240.6,941.5,1152.1,997z"/>
				</g>
			</g>
		</g>
	</g>
</g>
</svg>
