<?xml version="1.0" encoding="utf-8"?>
<!-- Generator: Adobe Illustrator 21.1.0, SVG Export Plug-In . SVG Version: 6.00 Build 0)  -->
<svg version="1.1" id="Layer_1" xmlns="http://www.w3.org/2000/svg" xmlns:xlink="http://www.w3.org/1999/xlink" x="0px" y="0px"
	 viewBox="0 0 96 113" style="enable-background:new 0 0 96 113;" xml:space="preserve">
<style type="text/css">
	.st0{fill:none;}
	.st1{fill:#010101;}
</style>
<g>
	<path class="st0" d="M48,74.1c0-0.2,0-0.3,0-0.3S48,73.9,48,74.1L48,74.1z"/>
	<path class="st1" d="M48,73.8L48,73.8L48,73.8L48,73.8L48,73.8z"/>
	<path class="st1" d="M45.7,0L45.7,0L45.7,0L45.7,0z"/>
	<path class="st1" d="M48,73.8C47.9,73.8,47.9,73.8,48,73.8L48,73.8C47.9,73.8,47.9,73.8,48,73.8L48,73.8z"/>
	<path class="st1" d="M45.8,0L45.8,0L45.8,0L45.8,0z"/>
	<path class="st1" d="M45.9,0L45.9,0C46,0,46,0,45.9,0C46,0,46,0,45.9,0z"/>
	<path class="st1" d="M45.6,0L45.6,0L45.6,0L45.6,0z"/>
	<path class="st1" d="M45.4,0L45.4,0L45.4,0L45.4,0z"/>
	<path class="st1" d="M45.7,0C45.6,0,45.6,0,45.7,0C45.6,0,45.6,0,45.7,0L45.7,0z"/>
</g>
<g>
	<g>
		<path class="st0" d="M54.9,55.5c-2.5,4.3-2.1,12.1,4.1,15.6c6.2,3.6,12.6,8.1,19.3,4c6.7-4.2,5.8-13.9,1.8-20.1
			C76.8,49.8,57.4,51.1,54.9,55.5z"/>
		<path class="st0" d="M40.9,55.5c-2.4-4.4-21.8-5.7-25.2-0.5c-3.9,6.1-4.8,15.9,1.8,20.1c6.7,4.1,13.1-0.4,19.3-4
			C43,67.6,43.4,59.8,40.9,55.5z"/>
		<path class="st0" d="M48.2,70C48.1,70,48.1,70,48.2,70C48.1,70,48.1,70,48.2,70L48.2,70L48.2,70c-0.1,0-0.1,0-0.2,0l0,0l0,0h-0.1
			l0,0l0,0c0,0,0,0-0.1,0h-0.1c-0.4,0-1.4,0.2-1.5,1.3c-0.8,5.4-7,14-6.5,16.3c0.8,3.5,5.7-2,8.1-2.3l0,0h0.1H48h0.1h0.1h0.1h0.1
			l0,0c2.4,0.4,7.3,5.9,8.1,2.3c0.4-2.3-5.7-10.8-6.5-16.3C49.6,70.1,48.6,70,48.2,70z"/>
		<g>
			<g>
				<g>
					<path d="M88.4,72c1-8.7,2.6-9.1,4.5-16.2c8-29-13.8-55.2-44.7-55.3l0,0h-0.1H48h-0.1l0,0l0,0h-0.1h-0.1h-0.1l0,0
						C16.8,0.7-4.9,26.8,3,55.9c1.9,7,3.5,7.4,4.5,16.2c-7.4,3.6-8,21.8,8.1,21c4.2-0.5,8.9-2.5,8.9,3l-3.3,14.3c0,0,0,2.3,2,2.3
						c1,0,48.6,0,49.6,0c2.2,0,2-2.4,2-2.4L71.5,96c0-5.5,4.6-3.5,8.9-3C96.4,93.9,95.9,75.7,88.4,72z M36.9,71.3
						c-6.2,3.6-12.6,8.1-19.3,4c-6.7-4.2-5.8-13.9-1.8-20.1c3.4-5.2,22.8-4,25.2,0.5C43.5,60,43.1,67.7,36.9,71.3z M56.3,87.6
						c-0.8,3.5-5.7-2-8.1-2.3l0,0h-0.1H48h-0.1h-0.1h-0.1h-0.1l0,0c-2.4,0.4-7.3,5.9-8.1,2.3c-0.4-2.3,5.7-10.8,6.5-16.3
						c0.2-1.1,1.1-1.2,1.5-1.3c0,0,0,0,0.1,0h0.1l0,0l0,0c0,0,0,0,0.1,0l0,0l0,0h0.1l0,0l0,0c0,0,0,0,0.1,0h0.1
						c0.4,0,1.4,0.2,1.5,1.3C50.6,76.8,56.8,85.4,56.3,87.6z M78.4,75.3c-6.7,4.1-13.1-0.4-19.3-4C52.9,67.7,52.5,60,55,55.7
						c2.4-4.4,21.8-5.7,25.2-0.5C84.2,61.4,85.1,71.1,78.4,75.3z"/>
				</g>
			</g>
		</g>
	</g>
</g>
</svg>
